<svg xmlns="http://www.w3.org/2000/svg" width="118" height="31" fill="none" viewBox="0 0 118 31">
    <path fill="currentColor"
        d="M5.76 30V1.08h5.92l10.28 17.52V1.08h5.76V30h-5.92L11.52 12.48V30h-5.76ZM37.674 30.4c-1.493 0-2.867-.28-4.12-.84a9.306 9.306 0 0 1-3.24-2.36c-.907-1.013-1.607-2.193-2.1-3.54-.48-1.36-.72-2.84-.72-4.44 0-1.6.24-3.08.72-4.44.493-1.36 1.2-2.54 2.12-3.54a9.595 9.595 0 0 1 3.26-2.36c1.253-.56 2.633-.84 4.14-.84 1.493 0 2.867.28 4.12.84a9.306 9.306 0 0 1 3.24 2.36c.907 1.013 1.607 2.193 2.1 3.54.48 1.36.72 2.84.72 4.44 0 1.6-.24 3.08-.72 4.44-.493 1.36-1.2 2.54-2.12 3.54a9.595 9.595 0 0 1-3.26 2.36c-1.253.56-2.633.84-4.14.84Zm.04-4.68c1.44 0 2.6-.507 3.48-1.52.894-1.027 1.34-2.527 1.34-4.5s-.446-3.46-1.34-4.46c-.88-1.013-2.04-1.52-3.48-1.52s-2.613.507-3.52 1.52c-.893 1-1.34 2.487-1.34 4.46s.447 3.473 1.34 4.5c.907 1.013 2.08 1.52 3.52 1.52ZM61.338 30V9.32h-7.2V4.68h20.16v4.64h-7.2V30h-5.76ZM84.914 30.4c-1.493 0-2.867-.28-4.12-.84a9.306 9.306 0 0 1-3.24-2.36c-.907-1.013-1.607-2.193-2.1-3.54-.48-1.36-.72-2.84-.72-4.44 0-1.6.24-3.08.72-4.44.493-1.36 1.2-2.54 2.12-3.54a9.595 9.595 0 0 1 3.26-2.36c1.253-.56 2.633-.84 4.14-.84 1.493 0 2.867.28 4.12.84a9.306 9.306 0 0 1 3.24 2.36c.907 1.013 1.607 2.193 2.1 3.54.48 1.36.72 2.84.72 4.44 0 1.6-.24 3.08-.72 4.44-.493 1.36-1.2 2.54-2.12 3.54a9.595 9.595 0 0 1-3.26 2.36c-1.253.56-2.633.84-4.14.84Z" />
    <path fill="currentColor" fill-opacity="0.7"
        d="M103.338 30v-9.32h-7.2V15.68h20.16v4.64h-7.2V30h-5.76Z" />
</svg>